<mxfile host="65bd71144e">
    <diagram id="8Ivfi7Xrlxy1uvxkMWFY" name="Page-1">
        <mxGraphModel dx="845" dy="581" grid="0" gridSize="10" guides="1" tooltips="1" connect="1" arrows="1" fold="1" page="1" pageScale="1" pageWidth="1100" pageHeight="850" background="#ffffff" math="0" shadow="0">
            <root>
                <mxCell id="0"/>
                <mxCell id="1" parent="0"/>
                <mxCell id="34" value="" style="group" vertex="1" connectable="0" parent="1">
                    <mxGeometry x="675" y="142" width="115" height="566" as="geometry"/>
                </mxCell>
                <mxCell id="19" value="" style="group" vertex="1" connectable="0" parent="34">
                    <mxGeometry width="115" height="104" as="geometry"/>
                </mxCell>
                <mxCell id="17" value="" style="shape=datastore;whiteSpace=wrap;html=1;sketch=1;hachureGap=4;jiggle=2;curveFitting=1;strokeColor=#000000;fontFamily=Architects Daughter;fontSource=https%3A%2F%2Ffonts.googleapis.com%2Fcss%3Ffamily%3DArchitects%2BDaughter;fontSize=20;fontColor=#000000;fillColor=#FFFFFF;gradientColor=none;rotation=90;" vertex="1" parent="19">
                    <mxGeometry x="84" y="43" width="14" height="48" as="geometry"/>
                </mxCell>
                <mxCell id="18" value="" style="shape=datastore;whiteSpace=wrap;html=1;sketch=1;hachureGap=4;jiggle=2;curveFitting=1;strokeColor=#000000;fontFamily=Architects Daughter;fontSource=https%3A%2F%2Ffonts.googleapis.com%2Fcss%3Ffamily%3DArchitects%2BDaughter;fontSize=20;fontColor=#000000;fillColor=#FFFFFF;gradientColor=none;rotation=0;" vertex="1" parent="19">
                    <mxGeometry x="27" width="14" height="48" as="geometry"/>
                </mxCell>
                <mxCell id="15" value="pump 1" style="ellipse;whiteSpace=wrap;html=1;aspect=fixed;sketch=1;hachureGap=4;jiggle=2;curveFitting=1;strokeColor=#000000;fontFamily=Architects Daughter;fontSource=https%3A%2F%2Ffonts.googleapis.com%2Fcss%3Ffamily%3DArchitects%2BDaughter;fontSize=20;fontColor=#000000;fillColor=#FFFFFF;gradientColor=none;" vertex="1" parent="19">
                    <mxGeometry y="24" width="80" height="80" as="geometry"/>
                </mxCell>
                <mxCell id="20" value="" style="group" vertex="1" connectable="0" parent="34">
                    <mxGeometry y="462" width="115" height="104" as="geometry"/>
                </mxCell>
                <mxCell id="22" value="" style="shape=datastore;whiteSpace=wrap;html=1;sketch=1;hachureGap=4;jiggle=2;curveFitting=1;strokeColor=#000000;fontFamily=Architects Daughter;fontSource=https%3A%2F%2Ffonts.googleapis.com%2Fcss%3Ffamily%3DArchitects%2BDaughter;fontSize=20;fontColor=#000000;fillColor=#FFFFFF;gradientColor=none;rotation=90;" vertex="1" parent="20">
                    <mxGeometry x="84" y="43" width="14" height="48" as="geometry"/>
                </mxCell>
                <mxCell id="23" value="" style="shape=datastore;whiteSpace=wrap;html=1;sketch=1;hachureGap=4;jiggle=2;curveFitting=1;strokeColor=#000000;fontFamily=Architects Daughter;fontSource=https%3A%2F%2Ffonts.googleapis.com%2Fcss%3Ffamily%3DArchitects%2BDaughter;fontSize=20;fontColor=#000000;fillColor=#FFFFFF;gradientColor=none;rotation=0;" vertex="1" parent="20">
                    <mxGeometry x="27" width="14" height="48" as="geometry"/>
                </mxCell>
                <mxCell id="21" value="pump 4" style="ellipse;whiteSpace=wrap;html=1;aspect=fixed;sketch=1;hachureGap=4;jiggle=2;curveFitting=1;strokeColor=#000000;fontFamily=Architects Daughter;fontSource=https%3A%2F%2Ffonts.googleapis.com%2Fcss%3Ffamily%3DArchitects%2BDaughter;fontSize=20;fontColor=#000000;fillColor=#FFFFFF;gradientColor=none;" vertex="1" parent="20">
                    <mxGeometry y="24" width="80" height="80" as="geometry"/>
                </mxCell>
                <mxCell id="25" value="" style="group" vertex="1" connectable="0" parent="34">
                    <mxGeometry y="308" width="115" height="104" as="geometry"/>
                </mxCell>
                <mxCell id="33" style="edgeStyle=none;sketch=1;hachureGap=4;jiggle=2;curveFitting=1;html=1;exitX=0.5;exitY=1;exitDx=0;exitDy=0;strokeColor=#000000;fontFamily=Architects Daughter;fontSource=https%3A%2F%2Ffonts.googleapis.com%2Fcss%3Ffamily%3DArchitects%2BDaughter;fontSize=16;fontColor=#000000;" edge="1" parent="25" source="27" target="26">
                    <mxGeometry relative="1" as="geometry"/>
                </mxCell>
                <mxCell id="27" value="" style="shape=datastore;whiteSpace=wrap;html=1;sketch=1;hachureGap=4;jiggle=2;curveFitting=1;strokeColor=#000000;fontFamily=Architects Daughter;fontSource=https%3A%2F%2Ffonts.googleapis.com%2Fcss%3Ffamily%3DArchitects%2BDaughter;fontSize=20;fontColor=#000000;fillColor=#FFFFFF;gradientColor=none;rotation=90;" vertex="1" parent="25">
                    <mxGeometry x="84" y="43" width="14" height="48" as="geometry"/>
                </mxCell>
                <mxCell id="28" value="" style="shape=datastore;whiteSpace=wrap;html=1;sketch=1;hachureGap=4;jiggle=2;curveFitting=1;strokeColor=#000000;fontFamily=Architects Daughter;fontSource=https%3A%2F%2Ffonts.googleapis.com%2Fcss%3Ffamily%3DArchitects%2BDaughter;fontSize=20;fontColor=#000000;fillColor=#FFFFFF;gradientColor=none;rotation=0;" vertex="1" parent="25">
                    <mxGeometry x="27" width="14" height="48" as="geometry"/>
                </mxCell>
                <mxCell id="26" value="&amp;nbsp;pump 3" style="ellipse;whiteSpace=wrap;html=1;aspect=fixed;sketch=1;hachureGap=4;jiggle=2;curveFitting=1;strokeColor=#000000;fontFamily=Architects Daughter;fontSource=https%3A%2F%2Ffonts.googleapis.com%2Fcss%3Ffamily%3DArchitects%2BDaughter;fontSize=20;fontColor=#000000;fillColor=#FFFFFF;gradientColor=none;" vertex="1" parent="25">
                    <mxGeometry y="24" width="80" height="80" as="geometry"/>
                </mxCell>
                <mxCell id="29" value="" style="group;" vertex="1" connectable="0" parent="34">
                    <mxGeometry y="154" width="115" height="104" as="geometry"/>
                </mxCell>
                <mxCell id="31" value="" style="shape=datastore;whiteSpace=wrap;html=1;sketch=1;hachureGap=4;jiggle=2;curveFitting=1;strokeColor=#000000;fontFamily=Architects Daughter;fontSource=https%3A%2F%2Ffonts.googleapis.com%2Fcss%3Ffamily%3DArchitects%2BDaughter;fontSize=20;fontColor=#000000;fillColor=#FFFFFF;gradientColor=none;rotation=90;" vertex="1" parent="29">
                    <mxGeometry x="84" y="43" width="14" height="48" as="geometry"/>
                </mxCell>
                <mxCell id="32" value="" style="shape=datastore;whiteSpace=wrap;html=1;sketch=1;hachureGap=4;jiggle=2;curveFitting=1;strokeColor=#000000;fontFamily=Architects Daughter;fontSource=https%3A%2F%2Ffonts.googleapis.com%2Fcss%3Ffamily%3DArchitects%2BDaughter;fontSize=20;fontColor=#000000;fillColor=#FFFFFF;gradientColor=none;rotation=0;" vertex="1" parent="29">
                    <mxGeometry x="27" width="14" height="48" as="geometry"/>
                </mxCell>
                <mxCell id="30" value="pump 2" style="ellipse;whiteSpace=wrap;html=1;aspect=fixed;sketch=1;hachureGap=4;jiggle=2;curveFitting=1;strokeColor=#000000;fontFamily=Architects Daughter;fontSource=https%3A%2F%2Ffonts.googleapis.com%2Fcss%3Ffamily%3DArchitects%2BDaughter;fontSize=20;fontColor=#000000;fillColor=#FFFFFF;gradientColor=none;" vertex="1" parent="29">
                    <mxGeometry y="24" width="80" height="80" as="geometry"/>
                </mxCell>
                <mxCell id="2" value="&lt;font color=&quot;#000000&quot;&gt;Raspberry Pi&lt;/font&gt;" style="shape=ext;double=1;rounded=0;whiteSpace=wrap;html=1;hachureGap=4;fontFamily=Architects Daughter;fontSource=https%3A%2F%2Ffonts.googleapis.com%2Fcss%3Ffamily%3DArchitects%2BDaughter;fontSize=20;fillColor=#FFFFFF;strokeColor=#000000;sketch=1;curveFitting=1;jiggle=2;" vertex="1" parent="1">
                    <mxGeometry x="50" y="220" width="130" height="101" as="geometry"/>
                </mxCell>
                <mxCell id="3" value="Bioreactor" style="shape=mxgraph.pid.vessels.reactor;html=1;pointerEvents=1;align=center;verticalLabelPosition=bottom;verticalAlign=top;dashed=0;hachureGap=4;strokeColor=#000000;fontFamily=Architects Daughter;fontSource=https%3A%2F%2Ffonts.googleapis.com%2Fcss%3Ffamily%3DArchitects%2BDaughter;fontSize=20;fontColor=#000000;fillColor=#FFFFFF;rounded=0;sketch=1;curveFitting=1;jiggle=2;gradientColor=none;" vertex="1" parent="1">
                    <mxGeometry x="953" y="328" width="90" height="195" as="geometry"/>
                </mxCell>
                <mxCell id="6" style="edgeStyle=none;hachureGap=4;html=1;exitX=0.5;exitY=1;exitDx=0;exitDy=0;exitPerimeter=0;entryX=0.5;entryY=0;entryDx=0;entryDy=0;fontFamily=Architects Daughter;fontSource=https%3A%2F%2Ffonts.googleapis.com%2Fcss%3Ffamily%3DArchitects%2BDaughter;fontSize=16;fontColor=#000000;strokeColor=#000000;rounded=0;sketch=1;curveFitting=1;jiggle=2;" edge="1" parent="1" source="5" target="2">
                    <mxGeometry relative="1" as="geometry"/>
                </mxCell>
                <mxCell id="5" value="Database" style="shape=cylinder3;whiteSpace=wrap;html=1;boundedLbl=1;backgroundOutline=1;size=15;hachureGap=4;strokeColor=#000000;fontFamily=Architects Daughter;fontSource=https%3A%2F%2Ffonts.googleapis.com%2Fcss%3Ffamily%3DArchitects%2BDaughter;fontSize=20;fontColor=#000000;fillColor=#FFFFFF;rounded=0;sketch=1;curveFitting=1;jiggle=2;" vertex="1" parent="1">
                    <mxGeometry x="62.5" y="50" width="105" height="110" as="geometry"/>
                </mxCell>
                <mxCell id="7" value="&lt;font color=&quot;#000000&quot;&gt;Relay module&lt;/font&gt;" style="rounded=0;whiteSpace=wrap;html=1;sketch=1;hachureGap=4;jiggle=2;curveFitting=1;fontFamily=Architects Daughter;fontSource=https%3A%2F%2Ffonts.googleapis.com%2Fcss%3Ffamily%3DArchitects%2BDaughter;fontSize=20;fillColor=#FFFFFF;strokeColor=#000000;" vertex="1" parent="1">
                    <mxGeometry x="243" y="190" width="120" height="226" as="geometry"/>
                </mxCell>
                <mxCell id="40" style="edgeStyle=orthogonalEdgeStyle;hachureGap=4;html=1;exitX=0.75;exitY=1;exitDx=0;exitDy=0;entryX=0;entryY=0;entryDx=0;entryDy=0;strokeColor=#000000;fontFamily=Architects Daughter;fontSource=https%3A%2F%2Ffonts.googleapis.com%2Fcss%3Ffamily%3DArchitects%2BDaughter;fontSize=16;fontColor=#000000;endArrow=none;endFill=0;" edge="1" parent="1" source="37" target="15">
                    <mxGeometry relative="1" as="geometry">
                        <Array as="points">
                            <mxPoint x="553" y="178"/>
                        </Array>
                    </mxGeometry>
                </mxCell>
                <mxCell id="43" style="edgeStyle=orthogonalEdgeStyle;sketch=0;hachureGap=4;jiggle=2;curveFitting=1;html=1;exitX=0.25;exitY=1;exitDx=0;exitDy=0;entryX=1.005;entryY=0.121;entryDx=0;entryDy=0;entryPerimeter=0;strokeColor=#000000;fontFamily=Architects Daughter;fontSource=https%3A%2F%2Ffonts.googleapis.com%2Fcss%3Ffamily%3DArchitects%2BDaughter;fontSize=16;fontColor=#000000;endArrow=none;endFill=0;" edge="1" parent="1" source="37" target="7">
                    <mxGeometry relative="1" as="geometry"/>
                </mxCell>
                <mxCell id="37" value="battery" style="rounded=1;whiteSpace=wrap;html=1;sketch=1;hachureGap=4;jiggle=2;curveFitting=1;strokeColor=#000000;fontFamily=Architects Daughter;fontSource=https%3A%2F%2Ffonts.googleapis.com%2Fcss%3Ffamily%3DArchitects%2BDaughter;fontSize=20;fontColor=#000000;fillColor=#FFFFFF;gradientColor=none;" vertex="1" parent="1">
                    <mxGeometry x="494" y="100" width="78" height="42" as="geometry"/>
                </mxCell>
                <mxCell id="44" style="sketch=0;hachureGap=4;jiggle=2;curveFitting=1;html=1;exitX=0.042;exitY=0.757;exitDx=0;exitDy=0;entryX=1.013;entryY=0.162;entryDx=0;entryDy=0;entryPerimeter=0;strokeColor=#000000;fontFamily=Architects Daughter;fontSource=https%3A%2F%2Ffonts.googleapis.com%2Fcss%3Ffamily%3DArchitects%2BDaughter;fontSize=16;fontColor=#000000;endArrow=none;endFill=0;exitPerimeter=0;" edge="1" parent="1" source="15" target="7">
                    <mxGeometry relative="1" as="geometry"/>
                </mxCell>
                <mxCell id="46" style="edgeStyle=orthogonalEdgeStyle;sketch=0;hachureGap=4;jiggle=2;curveFitting=1;html=1;exitX=0.25;exitY=1;exitDx=0;exitDy=0;entryX=1.013;entryY=0.473;entryDx=0;entryDy=0;entryPerimeter=0;strokeColor=#000000;fontFamily=Architects Daughter;fontSource=https%3A%2F%2Ffonts.googleapis.com%2Fcss%3Ffamily%3DArchitects%2BDaughter;fontSize=16;fontColor=#000000;endArrow=none;endFill=0;" edge="1" parent="1" source="45" target="7">
                    <mxGeometry relative="1" as="geometry"/>
                </mxCell>
                <mxCell id="47" style="edgeStyle=orthogonalEdgeStyle;sketch=0;hachureGap=4;jiggle=2;curveFitting=1;html=1;exitX=0.75;exitY=1;exitDx=0;exitDy=0;entryX=0;entryY=0;entryDx=0;entryDy=0;strokeColor=#000000;fontFamily=Architects Daughter;fontSource=https%3A%2F%2Ffonts.googleapis.com%2Fcss%3Ffamily%3DArchitects%2BDaughter;fontSize=16;fontColor=#000000;endArrow=none;endFill=0;" edge="1" parent="1" source="45" target="30">
                    <mxGeometry relative="1" as="geometry">
                        <Array as="points">
                            <mxPoint x="553" y="330"/>
                            <mxPoint x="687" y="330"/>
                        </Array>
                    </mxGeometry>
                </mxCell>
                <mxCell id="45" value="battery" style="rounded=1;whiteSpace=wrap;html=1;sketch=1;hachureGap=4;jiggle=2;curveFitting=1;strokeColor=#000000;fontFamily=Architects Daughter;fontSource=https%3A%2F%2Ffonts.googleapis.com%2Fcss%3Ffamily%3DArchitects%2BDaughter;fontSize=20;fontColor=#000000;fillColor=#FFFFFF;gradientColor=none;" vertex="1" parent="1">
                    <mxGeometry x="494" y="243" width="78" height="42" as="geometry"/>
                </mxCell>
                <mxCell id="48" style="edgeStyle=orthogonalEdgeStyle;sketch=0;hachureGap=4;jiggle=2;curveFitting=1;html=1;exitX=0;exitY=1;exitDx=0;exitDy=0;entryX=1.002;entryY=0.522;entryDx=0;entryDy=0;entryPerimeter=0;strokeColor=#000000;fontFamily=Architects Daughter;fontSource=https%3A%2F%2Ffonts.googleapis.com%2Fcss%3Ffamily%3DArchitects%2BDaughter;fontSize=16;fontColor=#000000;endArrow=none;endFill=0;" edge="1" parent="1" source="30" target="7">
                    <mxGeometry relative="1" as="geometry"/>
                </mxCell>
                <mxCell id="50" style="edgeStyle=orthogonalEdgeStyle;sketch=0;hachureGap=4;jiggle=2;curveFitting=1;html=1;exitX=0.25;exitY=1;exitDx=0;exitDy=0;entryX=1.007;entryY=0.684;entryDx=0;entryDy=0;entryPerimeter=0;strokeColor=#000000;fontFamily=Architects Daughter;fontSource=https%3A%2F%2Ffonts.googleapis.com%2Fcss%3Ffamily%3DArchitects%2BDaughter;fontSize=16;fontColor=#000000;endArrow=none;endFill=0;" edge="1" parent="1" source="49" target="7">
                    <mxGeometry relative="1" as="geometry">
                        <Array as="points">
                            <mxPoint x="513" y="484"/>
                            <mxPoint x="429" y="484"/>
                            <mxPoint x="429" y="345"/>
                        </Array>
                    </mxGeometry>
                </mxCell>
                <mxCell id="51" style="edgeStyle=orthogonalEdgeStyle;sketch=0;hachureGap=4;jiggle=2;curveFitting=1;html=1;exitX=0.75;exitY=1;exitDx=0;exitDy=0;entryX=0;entryY=0;entryDx=0;entryDy=0;strokeColor=#000000;fontFamily=Architects Daughter;fontSource=https%3A%2F%2Ffonts.googleapis.com%2Fcss%3Ffamily%3DArchitects%2BDaughter;fontSize=16;fontColor=#000000;endArrow=none;endFill=0;" edge="1" parent="1" source="49" target="26">
                    <mxGeometry relative="1" as="geometry">
                        <Array as="points">
                            <mxPoint x="553" y="484"/>
                            <mxPoint x="687" y="484"/>
                        </Array>
                    </mxGeometry>
                </mxCell>
                <mxCell id="49" value="battery" style="rounded=1;whiteSpace=wrap;html=1;sketch=1;hachureGap=4;jiggle=2;curveFitting=1;strokeColor=#000000;fontFamily=Architects Daughter;fontSource=https%3A%2F%2Ffonts.googleapis.com%2Fcss%3Ffamily%3DArchitects%2BDaughter;fontSize=20;fontColor=#000000;fillColor=#FFFFFF;gradientColor=none;" vertex="1" parent="1">
                    <mxGeometry x="494" y="398" width="78" height="42" as="geometry"/>
                </mxCell>
                <mxCell id="52" style="edgeStyle=orthogonalEdgeStyle;sketch=0;hachureGap=4;jiggle=2;curveFitting=1;html=1;exitX=0;exitY=1;exitDx=0;exitDy=0;entryX=0.996;entryY=0.72;entryDx=0;entryDy=0;entryPerimeter=0;strokeColor=#000000;fontFamily=Architects Daughter;fontSource=https%3A%2F%2Ffonts.googleapis.com%2Fcss%3Ffamily%3DArchitects%2BDaughter;fontSize=16;fontColor=#000000;endArrow=none;endFill=0;" edge="1" parent="1" source="26" target="7">
                    <mxGeometry relative="1" as="geometry">
                        <Array as="points">
                            <mxPoint x="662" y="542"/>
                            <mxPoint x="662" y="504"/>
                            <mxPoint x="418" y="504"/>
                            <mxPoint x="418" y="353"/>
                        </Array>
                    </mxGeometry>
                </mxCell>
                <mxCell id="54" style="edgeStyle=orthogonalEdgeStyle;sketch=0;hachureGap=4;jiggle=2;curveFitting=1;html=1;exitX=0.75;exitY=1;exitDx=0;exitDy=0;entryX=0;entryY=0;entryDx=0;entryDy=0;strokeColor=#000000;fontFamily=Architects Daughter;fontSource=https%3A%2F%2Ffonts.googleapis.com%2Fcss%3Ffamily%3DArchitects%2BDaughter;fontSize=16;fontColor=#000000;endArrow=none;endFill=0;" edge="1" parent="1" source="53" target="21">
                    <mxGeometry relative="1" as="geometry"/>
                </mxCell>
                <mxCell id="56" style="edgeStyle=orthogonalEdgeStyle;sketch=0;hachureGap=4;jiggle=2;curveFitting=1;html=1;exitX=0.25;exitY=1;exitDx=0;exitDy=0;entryX=0.996;entryY=0.885;entryDx=0;entryDy=0;entryPerimeter=0;strokeColor=#000000;fontFamily=Architects Daughter;fontSource=https%3A%2F%2Ffonts.googleapis.com%2Fcss%3Ffamily%3DArchitects%2BDaughter;fontSize=16;fontColor=#000000;endArrow=none;endFill=0;" edge="1" parent="1" source="53" target="7">
                    <mxGeometry relative="1" as="geometry">
                        <Array as="points">
                            <mxPoint x="513" y="605"/>
                            <mxPoint x="399" y="605"/>
                            <mxPoint x="399" y="390"/>
                        </Array>
                    </mxGeometry>
                </mxCell>
                <mxCell id="53" value="battery" style="rounded=1;whiteSpace=wrap;html=1;sketch=1;hachureGap=4;jiggle=2;curveFitting=1;strokeColor=#000000;fontFamily=Architects Daughter;fontSource=https%3A%2F%2Ffonts.googleapis.com%2Fcss%3Ffamily%3DArchitects%2BDaughter;fontSize=20;fontColor=#000000;fillColor=#FFFFFF;gradientColor=none;" vertex="1" parent="1">
                    <mxGeometry x="494" y="553" width="78" height="42" as="geometry"/>
                </mxCell>
                <mxCell id="55" style="edgeStyle=orthogonalEdgeStyle;sketch=0;hachureGap=4;jiggle=2;curveFitting=1;html=1;exitX=0;exitY=1;exitDx=0;exitDy=0;entryX=1.007;entryY=0.931;entryDx=0;entryDy=0;entryPerimeter=0;strokeColor=#000000;fontFamily=Architects Daughter;fontSource=https%3A%2F%2Ffonts.googleapis.com%2Fcss%3Ffamily%3DArchitects%2BDaughter;fontSize=16;fontColor=#000000;endArrow=none;endFill=0;" edge="1" parent="1" source="21" target="7">
                    <mxGeometry relative="1" as="geometry">
                        <Array as="points">
                            <mxPoint x="663" y="696"/>
                            <mxPoint x="663" y="624"/>
                            <mxPoint x="387" y="624"/>
                            <mxPoint x="387" y="400"/>
                        </Array>
                    </mxGeometry>
                </mxCell>
                <mxCell id="58" style="sketch=0;hachureGap=4;jiggle=2;curveFitting=1;html=1;exitX=0.25;exitY=1;exitDx=0;exitDy=0;entryX=0.329;entryY=-0.006;entryDx=0;entryDy=0;entryPerimeter=0;strokeColor=#000000;fontFamily=Architects Daughter;fontSource=https%3A%2F%2Ffonts.googleapis.com%2Fcss%3Ffamily%3DArchitects%2BDaughter;fontSize=16;fontColor=#000000;endArrow=none;endFill=0;" edge="1" parent="1" source="57" target="7">
                    <mxGeometry relative="1" as="geometry"/>
                </mxCell>
                <mxCell id="59" style="edgeStyle=none;sketch=0;hachureGap=4;jiggle=2;curveFitting=1;html=1;exitX=0.75;exitY=1;exitDx=0;exitDy=0;entryX=0.663;entryY=-0.012;entryDx=0;entryDy=0;entryPerimeter=0;strokeColor=#000000;fontFamily=Architects Daughter;fontSource=https%3A%2F%2Ffonts.googleapis.com%2Fcss%3Ffamily%3DArchitects%2BDaughter;fontSize=16;fontColor=#000000;endArrow=none;endFill=0;" edge="1" parent="1" source="57" target="7">
                    <mxGeometry relative="1" as="geometry"/>
                </mxCell>
                <mxCell id="57" value="battery" style="rounded=1;whiteSpace=wrap;html=1;sketch=0;hachureGap=4;jiggle=2;curveFitting=1;strokeColor=#000000;fontFamily=Architects Daughter;fontSource=https%3A%2F%2Ffonts.googleapis.com%2Fcss%3Ffamily%3DArchitects%2BDaughter;fontSize=20;fontColor=#000000;fillColor=#FFFFFF;gradientColor=none;" vertex="1" parent="1">
                    <mxGeometry x="264" y="84" width="78" height="42" as="geometry"/>
                </mxCell>
                <mxCell id="71" value="" style="endArrow=none;html=1;sketch=0;hachureGap=4;jiggle=2;curveFitting=1;strokeColor=#000000;fontFamily=Architects Daughter;fontSource=https%3A%2F%2Ffonts.googleapis.com%2Fcss%3Ffamily%3DArchitects%2BDaughter;fontSize=16;fontColor=#000000;exitX=0.997;exitY=0.475;exitDx=0;exitDy=0;exitPerimeter=0;entryX=0.008;entryY=0.343;entryDx=0;entryDy=0;entryPerimeter=0;" edge="1" parent="1" source="2" target="7">
                    <mxGeometry width="50" height="50" relative="1" as="geometry">
                        <mxPoint x="157" y="397" as="sourcePoint"/>
                        <mxPoint x="231" y="267" as="targetPoint"/>
                    </mxGeometry>
                </mxCell>
                <mxCell id="74" value="" style="endArrow=none;html=1;sketch=0;hachureGap=4;jiggle=2;curveFitting=1;strokeColor=#000000;fontFamily=Architects Daughter;fontSource=https%3A%2F%2Ffonts.googleapis.com%2Fcss%3Ffamily%3DArchitects%2BDaughter;fontSize=16;fontColor=#000000;exitX=0.997;exitY=0.475;exitDx=0;exitDy=0;exitPerimeter=0;entryX=0.008;entryY=0.343;entryDx=0;entryDy=0;entryPerimeter=0;" edge="1" parent="1">
                    <mxGeometry width="50" height="50" relative="1" as="geometry">
                        <mxPoint x="178.65000000000006" y="280.45500000000004" as="sourcePoint"/>
                        <mxPoint x="243.00000000000003" y="279.998" as="targetPoint"/>
                    </mxGeometry>
                </mxCell>
                <mxCell id="75" value="" style="endArrow=none;html=1;sketch=0;hachureGap=4;jiggle=2;curveFitting=1;strokeColor=#000000;fontFamily=Architects Daughter;fontSource=https%3A%2F%2Ffonts.googleapis.com%2Fcss%3Ffamily%3DArchitects%2BDaughter;fontSize=16;fontColor=#000000;exitX=0.997;exitY=0.475;exitDx=0;exitDy=0;exitPerimeter=0;entryX=0.008;entryY=0.343;entryDx=0;entryDy=0;entryPerimeter=0;" edge="1" parent="1">
                    <mxGeometry width="50" height="50" relative="1" as="geometry">
                        <mxPoint x="177.00000000000006" y="255.455" as="sourcePoint"/>
                        <mxPoint x="241.35000000000002" y="254.99799999999996" as="targetPoint"/>
                    </mxGeometry>
                </mxCell>
                <mxCell id="76" value="" style="endArrow=none;html=1;sketch=0;hachureGap=4;jiggle=2;curveFitting=1;strokeColor=#000000;fontFamily=Architects Daughter;fontSource=https%3A%2F%2Ffonts.googleapis.com%2Fcss%3Ffamily%3DArchitects%2BDaughter;fontSize=16;fontColor=#000000;exitX=0.997;exitY=0.475;exitDx=0;exitDy=0;exitPerimeter=0;entryX=0.008;entryY=0.343;entryDx=0;entryDy=0;entryPerimeter=0;" edge="1" parent="1">
                    <mxGeometry width="50" height="50" relative="1" as="geometry">
                        <mxPoint x="178.65000000000006" y="292.45500000000004" as="sourcePoint"/>
                        <mxPoint x="243.00000000000003" y="291.998" as="targetPoint"/>
                    </mxGeometry>
                </mxCell>
                <mxCell id="78" value="DS18B20" style="rounded=0;whiteSpace=wrap;html=1;hachureGap=4;strokeColor=#000000;strokeWidth=1;fontFamily=Architects Daughter;fontSource=https%3A%2F%2Ffonts.googleapis.com%2Fcss%3Ffamily%3DArchitects%2BDaughter;fontSize=20;fontColor=#000000;fillColor=#FFFFFF;gradientColor=none;sketch=1;curveFitting=1;jiggle=2;" vertex="1" parent="1">
                    <mxGeometry x="70" y="395" width="90" height="38" as="geometry"/>
                </mxCell>
                <mxCell id="79" value="" style="endArrow=none;html=1;sketch=0;hachureGap=4;jiggle=2;curveFitting=1;strokeColor=#000000;fontFamily=Architects Daughter;fontSource=https%3A%2F%2Ffonts.googleapis.com%2Fcss%3Ffamily%3DArchitects%2BDaughter;fontSize=16;fontColor=#000000;entryX=0.705;entryY=1;entryDx=0;entryDy=0;entryPerimeter=0;exitX=0.789;exitY=-0.018;exitDx=0;exitDy=0;exitPerimeter=0;" edge="1" parent="1" source="78" target="2">
                    <mxGeometry width="50" height="50" relative="1" as="geometry">
                        <mxPoint x="129" y="395" as="sourcePoint"/>
                        <mxPoint x="179" y="345" as="targetPoint"/>
                    </mxGeometry>
                </mxCell>
                <mxCell id="80" value="" style="endArrow=none;html=1;sketch=0;hachureGap=4;jiggle=2;curveFitting=1;strokeColor=#000000;fontFamily=Architects Daughter;fontSource=https%3A%2F%2Ffonts.googleapis.com%2Fcss%3Ffamily%3DArchitects%2BDaughter;fontSize=16;fontColor=#000000;entryX=0.705;entryY=1;entryDx=0;entryDy=0;entryPerimeter=0;exitX=0.789;exitY=-0.018;exitDx=0;exitDy=0;exitPerimeter=0;" edge="1" parent="1">
                    <mxGeometry width="50" height="50" relative="1" as="geometry">
                        <mxPoint x="129" y="394.3159999999999" as="sourcePoint"/>
                        <mxPoint x="129.64" y="321" as="targetPoint"/>
                    </mxGeometry>
                </mxCell>
                <mxCell id="81" value="" style="endArrow=none;html=1;sketch=0;hachureGap=4;jiggle=2;curveFitting=1;strokeColor=#000000;fontFamily=Architects Daughter;fontSource=https%3A%2F%2Ffonts.googleapis.com%2Fcss%3Ffamily%3DArchitects%2BDaughter;fontSize=16;fontColor=#000000;entryX=0.705;entryY=1;entryDx=0;entryDy=0;entryPerimeter=0;exitX=0.789;exitY=-0.018;exitDx=0;exitDy=0;exitPerimeter=0;" edge="1" parent="1">
                    <mxGeometry width="50" height="50" relative="1" as="geometry">
                        <mxPoint x="153" y="394.9959999999999" as="sourcePoint"/>
                        <mxPoint x="153.64" y="321.68" as="targetPoint"/>
                    </mxGeometry>
                </mxCell>
                <mxCell id="99" style="edgeStyle=orthogonalEdgeStyle;sketch=0;hachureGap=4;jiggle=2;curveFitting=1;html=1;exitX=0.5;exitY=1;exitDx=0;exitDy=0;strokeColor=#000000;fontFamily=Architects Daughter;fontSource=https%3A%2F%2Ffonts.googleapis.com%2Fcss%3Ffamily%3DArchitects%2BDaughter;fontSize=16;fontColor=#000000;endArrow=none;endFill=0;" edge="1" parent="1" source="85">
                    <mxGeometry relative="1" as="geometry">
                        <mxPoint x="952" y="486" as="targetPoint"/>
                        <Array as="points">
                            <mxPoint x="115" y="737"/>
                            <mxPoint x="915" y="737"/>
                            <mxPoint x="915" y="486"/>
                            <mxPoint x="952" y="486"/>
                        </Array>
                    </mxGeometry>
                </mxCell>
                <mxCell id="85" value="T" style="ellipse;whiteSpace=wrap;html=1;aspect=fixed;sketch=1;hachureGap=4;jiggle=2;curveFitting=1;strokeColor=#000000;strokeWidth=1;fontFamily=Architects Daughter;fontSource=https%3A%2F%2Ffonts.googleapis.com%2Fcss%3Ffamily%3DArchitects%2BDaughter;fontSize=20;fontColor=#000000;fillColor=#FFFFFF;gradientColor=none;" vertex="1" parent="1">
                    <mxGeometry x="98" y="527" width="34" height="34" as="geometry"/>
                </mxCell>
                <mxCell id="86" value="" style="endArrow=none;html=1;sketch=0;hachureGap=4;jiggle=2;curveFitting=1;strokeColor=#000000;fontFamily=Architects Daughter;fontSource=https%3A%2F%2Ffonts.googleapis.com%2Fcss%3Ffamily%3DArchitects%2BDaughter;fontSize=16;fontColor=#000000;entryX=0.46;entryY=0.996;entryDx=0;entryDy=0;entryPerimeter=0;exitX=0.789;exitY=-0.018;exitDx=0;exitDy=0;exitPerimeter=0;" edge="1" parent="1" target="78">
                    <mxGeometry width="50" height="50" relative="1" as="geometry">
                        <mxPoint x="110" y="530.3159999999999" as="sourcePoint"/>
                        <mxPoint x="110.63999999999999" y="457" as="targetPoint"/>
                    </mxGeometry>
                </mxCell>
                <mxCell id="88" value="" style="endArrow=none;html=1;sketch=0;hachureGap=4;jiggle=2;curveFitting=1;strokeColor=#000000;fontFamily=Architects Daughter;fontSource=https%3A%2F%2Ffonts.googleapis.com%2Fcss%3Ffamily%3DArchitects%2BDaughter;fontSize=16;fontColor=#000000;entryX=0.557;entryY=0.998;entryDx=0;entryDy=0;entryPerimeter=0;exitX=0.789;exitY=-0.018;exitDx=0;exitDy=0;exitPerimeter=0;" edge="1" parent="1" target="78">
                    <mxGeometry width="50" height="50" relative="1" as="geometry">
                        <mxPoint x="119" y="529.3159999999999" as="sourcePoint"/>
                        <mxPoint x="119.63999999999999" y="456" as="targetPoint"/>
                    </mxGeometry>
                </mxCell>
                <mxCell id="89" value="" style="endArrow=none;html=1;sketch=0;hachureGap=4;jiggle=2;curveFitting=1;strokeColor=#000000;fontFamily=Architects Daughter;fontSource=https%3A%2F%2Ffonts.googleapis.com%2Fcss%3Ffamily%3DArchitects%2BDaughter;fontSize=16;fontColor=#000000;entryX=0.46;entryY=0.996;entryDx=0;entryDy=0;entryPerimeter=0;exitX=0.487;exitY=0.038;exitDx=0;exitDy=0;exitPerimeter=0;" edge="1" parent="1" source="85">
                    <mxGeometry width="50" height="50" relative="1" as="geometry">
                        <mxPoint x="114.3" y="530.4659999999999" as="sourcePoint"/>
                        <mxPoint x="115.7" y="432.99799999999993" as="targetPoint"/>
                    </mxGeometry>
                </mxCell>
                <mxCell id="92" value="ADS1115" style="rounded=0;whiteSpace=wrap;html=1;hachureGap=4;strokeColor=#000000;strokeWidth=1;fontFamily=Architects Daughter;fontSource=https%3A%2F%2Ffonts.googleapis.com%2Fcss%3Ffamily%3DArchitects%2BDaughter;fontSize=20;fontColor=#000000;fillColor=#FFFFFF;gradientColor=none;sketch=1;curveFitting=1;jiggle=2;" vertex="1" parent="1">
                    <mxGeometry x="70" y="755" width="90" height="38" as="geometry"/>
                </mxCell>
                <mxCell id="93" value="" style="endArrow=none;html=1;sketch=0;hachureGap=4;jiggle=2;curveFitting=1;strokeColor=#000000;fontFamily=Architects Daughter;fontSource=https%3A%2F%2Ffonts.googleapis.com%2Fcss%3Ffamily%3DArchitects%2BDaughter;fontSize=16;fontColor=#000000;edgeStyle=orthogonalEdgeStyle;exitX=0;exitY=0.5;exitDx=0;exitDy=0;entryX=-0.011;entryY=0.586;entryDx=0;entryDy=0;entryPerimeter=0;" edge="1" parent="1" source="92" target="2">
                    <mxGeometry width="50" height="50" relative="1" as="geometry">
                        <mxPoint x="105" y="710" as="sourcePoint"/>
                        <mxPoint x="49" y="270" as="targetPoint"/>
                        <Array as="points">
                            <mxPoint x="22" y="774"/>
                            <mxPoint x="22" y="279"/>
                        </Array>
                    </mxGeometry>
                </mxCell>
                <mxCell id="94" value="" style="endArrow=none;html=1;sketch=0;hachureGap=4;jiggle=2;curveFitting=1;strokeColor=#000000;fontFamily=Architects Daughter;fontSource=https%3A%2F%2Ffonts.googleapis.com%2Fcss%3Ffamily%3DArchitects%2BDaughter;fontSize=16;fontColor=#000000;edgeStyle=orthogonalEdgeStyle;exitX=-0.004;exitY=0.377;exitDx=0;exitDy=0;exitPerimeter=0;" edge="1" parent="1" source="92">
                    <mxGeometry width="50" height="50" relative="1" as="geometry">
                        <mxPoint x="74" y="777.0000000000001" as="sourcePoint"/>
                        <mxPoint x="48" y="284" as="targetPoint"/>
                        <Array as="points">
                            <mxPoint x="27" y="769"/>
                            <mxPoint x="27" y="284"/>
                            <mxPoint x="48" y="284"/>
                        </Array>
                    </mxGeometry>
                </mxCell>
                <mxCell id="95" value="" style="endArrow=none;html=1;sketch=0;hachureGap=4;jiggle=2;curveFitting=1;strokeColor=#000000;fontFamily=Architects Daughter;fontSource=https%3A%2F%2Ffonts.googleapis.com%2Fcss%3Ffamily%3DArchitects%2BDaughter;fontSize=16;fontColor=#000000;edgeStyle=orthogonalEdgeStyle;exitX=-0.004;exitY=0.624;exitDx=0;exitDy=0;exitPerimeter=0;" edge="1" parent="1" source="92" target="2">
                    <mxGeometry width="50" height="50" relative="1" as="geometry">
                        <mxPoint x="62.5" y="783" as="sourcePoint"/>
                        <mxPoint x="41.5" y="279" as="targetPoint"/>
                        <Array as="points">
                            <mxPoint x="17" y="779"/>
                            <mxPoint x="17" y="274"/>
                        </Array>
                    </mxGeometry>
                </mxCell>
                <mxCell id="96" value="" style="shape=flexArrow;endArrow=none;html=1;sketch=0;hachureGap=4;jiggle=2;curveFitting=1;strokeColor=#000000;fontFamily=Architects Daughter;fontSource=https%3A%2F%2Ffonts.googleapis.com%2Fcss%3Ffamily%3DArchitects%2BDaughter;fontSize=16;fontColor=#000000;endFill=0;exitX=1;exitY=0.5;exitDx=0;exitDy=0;" edge="1" parent="1" source="92">
                    <mxGeometry width="50" height="50" relative="1" as="geometry">
                        <mxPoint x="193" y="798" as="sourcePoint"/>
                        <mxPoint x="234" y="774" as="targetPoint"/>
                    </mxGeometry>
                </mxCell>
                <mxCell id="98" style="edgeStyle=orthogonalEdgeStyle;sketch=0;hachureGap=4;jiggle=2;curveFitting=1;html=1;exitX=1;exitY=0.5;exitDx=0;exitDy=0;entryX=1.005;entryY=0.809;entryDx=0;entryDy=0;entryPerimeter=0;strokeColor=#000000;fontFamily=Architects Daughter;fontSource=https%3A%2F%2Ffonts.googleapis.com%2Fcss%3Ffamily%3DArchitects%2BDaughter;fontSize=16;fontColor=#000000;endArrow=none;endFill=0;" edge="1" parent="1" source="97" target="3">
                    <mxGeometry relative="1" as="geometry">
                        <Array as="points">
                            <mxPoint x="1076" y="772"/>
                            <mxPoint x="1076" y="486"/>
                        </Array>
                    </mxGeometry>
                </mxCell>
                <mxCell id="97" value="pH" style="ellipse;whiteSpace=wrap;html=1;aspect=fixed;sketch=1;hachureGap=4;jiggle=2;curveFitting=1;strokeColor=#000000;strokeWidth=1;fontFamily=Architects Daughter;fontSource=https%3A%2F%2Ffonts.googleapis.com%2Fcss%3Ffamily%3DArchitects%2BDaughter;fontSize=20;fontColor=#000000;fillColor=#FFFFFF;gradientColor=none;" vertex="1" parent="1">
                    <mxGeometry x="230" y="755" width="34" height="34" as="geometry"/>
                </mxCell>
                <mxCell id="100" style="edgeStyle=orthogonalEdgeStyle;sketch=0;hachureGap=4;jiggle=2;curveFitting=1;html=1;exitX=0.5;exitY=0;exitDx=0;exitDy=0;entryX=-0.014;entryY=0.563;entryDx=0;entryDy=0;entryPerimeter=0;strokeColor=#000000;fontFamily=Architects Daughter;fontSource=https%3A%2F%2Ffonts.googleapis.com%2Fcss%3Ffamily%3DArchitects%2BDaughter;fontSize=16;fontColor=#000000;endArrow=none;endFill=0;" edge="1" parent="1" source="22" target="3">
                    <mxGeometry relative="1" as="geometry">
                        <Array as="points">
                            <mxPoint x="882" y="671"/>
                            <mxPoint x="882" y="436"/>
                            <mxPoint x="952" y="436"/>
                        </Array>
                    </mxGeometry>
                </mxCell>
                <mxCell id="101" style="edgeStyle=orthogonalEdgeStyle;sketch=0;hachureGap=4;jiggle=2;curveFitting=1;html=1;exitX=0.5;exitY=0;exitDx=0;exitDy=0;entryX=-0.014;entryY=0.503;entryDx=0;entryDy=0;entryPerimeter=0;strokeColor=#000000;fontFamily=Architects Daughter;fontSource=https%3A%2F%2Ffonts.googleapis.com%2Fcss%3Ffamily%3DArchitects%2BDaughter;fontSize=16;fontColor=#000000;endArrow=none;endFill=0;" edge="1" parent="1" source="27" target="3">
                    <mxGeometry relative="1" as="geometry">
                        <Array as="points">
                            <mxPoint x="872" y="517"/>
                            <mxPoint x="872" y="426"/>
                        </Array>
                    </mxGeometry>
                </mxCell>
                <mxCell id="102" style="edgeStyle=orthogonalEdgeStyle;sketch=0;hachureGap=4;jiggle=2;curveFitting=1;html=1;exitX=0.5;exitY=0;exitDx=0;exitDy=0;entryX=0.209;entryY=-0.003;entryDx=0;entryDy=0;entryPerimeter=0;strokeColor=#000000;fontFamily=Architects Daughter;fontSource=https%3A%2F%2Ffonts.googleapis.com%2Fcss%3Ffamily%3DArchitects%2BDaughter;fontSize=16;fontColor=#000000;endArrow=none;endFill=0;" edge="1" parent="1" source="31" target="3">
                    <mxGeometry relative="1" as="geometry"/>
                </mxCell>
                <mxCell id="103" style="edgeStyle=orthogonalEdgeStyle;sketch=0;hachureGap=4;jiggle=2;curveFitting=1;html=1;exitX=0.5;exitY=0;exitDx=0;exitDy=0;entryX=0.796;entryY=0.02;entryDx=0;entryDy=0;entryPerimeter=0;strokeColor=#000000;fontFamily=Architects Daughter;fontSource=https%3A%2F%2Ffonts.googleapis.com%2Fcss%3Ffamily%3DArchitects%2BDaughter;fontSize=16;fontColor=#000000;endArrow=none;endFill=0;" edge="1" parent="1" source="17" target="3">
                    <mxGeometry relative="1" as="geometry"/>
                </mxCell>
            </root>
        </mxGraphModel>
    </diagram>
</mxfile>